<?xml version="1.0" standalone="no"?>
<!DOCTYPE svg PUBLIC "-//W3C//DTD SVG 20010904//EN"
 "http://www.w3.org/TR/2001/REC-SVG-20010904/DTD/svg10.dtd">
<svg version="1.0" xmlns="http://www.w3.org/2000/svg"
 width="1024.000000pt" height="1024.000000pt" viewBox="0 0 1024.000000 1024.000000"
 preserveAspectRatio="xMidYMid meet">
<metadata>
Created by potrace 1.14, written by Peter Selinger 2001-2017
</metadata>
<g transform="translate(0.000000,1024.000000) scale(0.100000,-0.100000)"
fill="#000000" stroke="none">
<path d="M452 7900 c-219 -58 -376 -216 -432 -436 -20 -75 -20 -118 -20 -1853
0 -1501 3 -1786 15 -1843 16 -80 60 -176 109 -239 52 -68 1167 -1078 1239
-1122 34 -21 94 -48 132 -60 l70 -22 3555 0 3555 0 70 22 c39 12 98 39 132 60
77 47 1189 1056 1243 1127 49 65 88 152 106 236 11 54 14 369 14 1841 0 1735
0 1778 -20 1853 -57 222 -214 379 -436 436 -76 20 -131 20 -4668 19 -4485 0
-4593 -1 -4664 -19z m5288 -757 l21 -27 -4 -1190 c-3 -1040 -6 -1201 -19
-1268 -23 -112 -54 -201 -106 -303 -38 -74 -63 -107 -142 -186 -81 -81 -109
-102 -190 -142 -287 -141 -644 -136 -945 13 -119 59 -191 112 -303 223 -87 85
-106 115 -95 144 12 32 125 208 141 221 29 22 58 13 113 -39 133 -125 288
-217 424 -254 86 -23 236 -30 322 -16 83 15 193 64 248 112 55 48 111 140 143
233 l27 81 3 1016 c3 974 2 1016 -16 1032 -16 15 -72 17 -561 19 -524 3 -543
4 -557 22 -10 15 -14 54 -14 158 0 125 2 140 20 158 20 20 33 20 744 20 l725
0 21 -27z m-3405 -11 c443 -84 727 -301 851 -647 44 -125 64 -252 64 -415 0
-215 -33 -371 -113 -535 -99 -203 -251 -347 -472 -451 -97 -45 -115 -66 -94
-107 6 -10 157 -231 335 -490 178 -259 324 -480 324 -492 0 -12 -6 -30 -14
-41 -13 -17 -29 -19 -152 -22 -75 -2 -152 -1 -170 3 -30 5 -55 40 -354 499
-177 272 -329 500 -338 508 -14 11 -106 13 -534 8 -284 -3 -520 -9 -525 -13
-4 -5 -10 -225 -13 -489 l-5 -480 -24 -19 c-20 -17 -40 -19 -161 -19 -121 0
-141 2 -161 19 l-24 19 -3 1570 -2 1569 21 27 21 27 717 -4 c677 -4 722 -5
826 -25z m4738 10 c15 -16 17 -86 19 -710 3 -648 4 -692 21 -709 17 -17 69
-18 953 -18 l936 0 19 24 c18 22 19 49 19 709 0 624 1 687 17 704 14 16 33 18
165 18 135 0 150 -2 168 -20 20 -20 20 -33 20 -1590 l0 -1571 -25 -25 c-25
-25 -27 -25 -171 -22 -131 3 -147 5 -160 22 -12 17 -14 127 -14 686 0 586 -2
668 -16 688 l-15 22 -938 0 c-793 0 -940 -2 -957 -14 -18 -14 -19 -34 -22
-693 -2 -676 -2 -678 -23 -695 -18 -15 -43 -18 -161 -18 -134 0 -140 1 -163
25 l-25 24 0 1564 0 1564 21 27 c20 26 20 26 168 26 130 0 150 -2 164 -18z"/>
<path d="M1139 6783 c-12 -13 -14 -140 -14 -730 0 -703 0 -715 20 -729 32 -24
1028 -15 1134 10 333 78 532 257 596 536 26 109 24 310 -4 413 -59 223 -210
377 -448 457 -164 54 -236 60 -779 60 -445 0 -493 -2 -505 -17z"/>
</g>
</svg>
